# xmcd
#
# Track frame offsets:
#	150
#	21408
#	33477
#	51605
#	83403
#	97093
#	117625
#	138357
#	155431
#	167337
#	182031
#	199617
#	236701
#	266318
#	293591
#	324059
#	336214
#
# Disc length: 4646 seconds
#
# Revision: 0
# Processed by: cddbd v1.5.2PL0 Copyright (c) Steve Scherf et al.
# Submitted via: audiograbber 1.82.02
#
DISCID=e8122411
DTITLE=DJ Sean Haley - Soul Expressions
DYEAR=2006
DGENRE=Soul
TTITLE0=Bob James - Nautilus
TTITLE1=James Brown - The Boss (Black Ceasar Soundtrack)
TTITLE2=Brother To Brother - Chance WIth You
TTITLE3=Raphael Saadiq - Skyy, Can You Fell Me (Remix)
TTITLE4=Marvin Gaye - Heavy Love Affair
TTITLE5=The Crusaders - Chain Reaction
TTITLE6=Dexter Wansel - The Sweetest Pain
TTITLE7=Toto - Georgy Porgy
TTITLE8=Minnie Ripperton - Adventures In Paradise
TTITLE9=Heatwave - Super Soul SIster
TTITLE10=Marvin Gaye - I Want You
TTITLE11=James Brown - Funky Drummer
TTITLE12=Femi Kuti - Blackman Know Yourself
TTITLE13=Louie Vega - A Better Day (feat. Raul Midon)
TTITLE14=Lizz Fields - I Gotta Go (You've Been Warned) [DJ Spinna Remix]
TTITLE15=The Jackson Sisters - I Believe In Miracles
TTITLE16=Chakachas - Jungle Fever
EXTD=Soul Mix
EXTT0=
EXTT1=
EXTT2=
EXTT3=
EXTT4=
EXTT5=
EXTT6=
EXTT7=
EXTT8=
EXTT9=
EXTT10=
EXTT11=
EXTT12=
EXTT13=
EXTT14=
EXTT15=
EXTT16=
PLAYORDER=
